<svg width="176" height="56" viewBox="0 0 176 56" fill="none" xmlns="http://www.w3.org/2000/svg">
    <g filter="url(#filter0_d)">
        <rect x="2.29297" y="0.726562" width="171.153" height="51.2734" rx="5" fill="#2E5681"/>
    </g>
    <path d="M38.043 18.791L27.043 29.791" stroke="#FCFBFB" stroke-width="2" stroke-linecap="round" stroke-linejoin="round"/>
    <path d="M38.043 18.791L31.043 38.791L27.043 29.791L18.043 25.791L38.043 18.791Z" stroke="#FCFBFB" stroke-width="2" stroke-linecap="round" stroke-linejoin="round"/>
    <path d="M66.1648 29.4473H59.8648L58.6228 32.3633H56.2108L61.8808 19.7633H64.1848L69.8728 32.3633H67.4248L66.1648 29.4473ZM65.3908 27.6113L63.0148 22.1033L60.6568 27.6113H65.3908ZM80.5853 19.0073V32.3633H78.4253V31.1213C78.0533 31.5773 77.5913 31.9193 77.0393 32.1473C76.4993 32.3753 75.8993 32.4893 75.2393 32.4893C74.3153 32.4893 73.4813 32.2853 72.7373 31.8773C72.0053 31.4693 71.4293 30.8933 71.0093 30.1493C70.5893 29.3933 70.3793 28.5293 70.3793 27.5573C70.3793 26.5853 70.5893 25.7273 71.0093 24.9833C71.4293 24.2393 72.0053 23.6633 72.7373 23.2553C73.4813 22.8473 74.3153 22.6433 75.2393 22.6433C75.8753 22.6433 76.4573 22.7513 76.9853 22.9673C77.5133 23.1833 77.9633 23.5073 78.3353 23.9393V19.0073H80.5853ZM75.5093 30.5633C76.0493 30.5633 76.5353 30.4433 76.9673 30.2033C77.3993 29.9513 77.7413 29.5973 77.9933 29.1413C78.2453 28.6853 78.3713 28.1573 78.3713 27.5573C78.3713 26.9573 78.2453 26.4293 77.9933 25.9733C77.7413 25.5173 77.3993 25.1693 76.9673 24.9293C76.5353 24.6773 76.0493 24.5513 75.5093 24.5513C74.9693 24.5513 74.4833 24.6773 74.0513 24.9293C73.6193 25.1693 73.2773 25.5173 73.0253 25.9733C72.7733 26.4293 72.6473 26.9573 72.6473 27.5573C72.6473 28.1573 72.7733 28.6853 73.0253 29.1413C73.2773 29.5973 73.6193 29.9513 74.0513 30.2033C74.4833 30.4433 74.9693 30.5633 75.5093 30.5633ZM92.9427 19.0073V32.3633H90.7827V31.1213C90.4107 31.5773 89.9487 31.9193 89.3967 32.1473C88.8567 32.3753 88.2567 32.4893 87.5967 32.4893C86.6727 32.4893 85.8387 32.2853 85.0947 31.8773C84.3627 31.4693 83.7867 30.8933 83.3667 30.1493C82.9467 29.3933 82.7367 28.5293 82.7367 27.5573C82.7367 26.5853 82.9467 25.7273 83.3667 24.9833C83.7867 24.2393 84.3627 23.6633 85.0947 23.2553C85.8387 22.8473 86.6727 22.6433 87.5967 22.6433C88.2327 22.6433 88.8147 22.7513 89.3427 22.9673C89.8707 23.1833 90.3207 23.5073 90.6927 23.9393V19.0073H92.9427ZM87.8667 30.5633C88.4067 30.5633 88.8927 30.4433 89.3247 30.2033C89.7567 29.9513 90.0987 29.5973 90.3507 29.1413C90.6027 28.6853 90.7287 28.1573 90.7287 27.5573C90.7287 26.9573 90.6027 26.4293 90.3507 25.9733C90.0987 25.5173 89.7567 25.1693 89.3247 24.9293C88.8927 24.6773 88.4067 24.5513 87.8667 24.5513C87.3267 24.5513 86.8407 24.6773 86.4087 24.9293C85.9767 25.1693 85.6347 25.5173 85.3827 25.9733C85.1307 26.4293 85.0047 26.9573 85.0047 27.5573C85.0047 28.1573 85.1307 28.6853 85.3827 29.1413C85.6347 29.5973 85.9767 29.9513 86.4087 30.2033C86.8407 30.4433 87.3267 30.5633 87.8667 30.5633ZM103.633 21.7433H99.4568V19.7633H110.149V21.7433H105.973V32.3633H103.633V21.7433ZM114.851 22.6433C116.267 22.6433 117.347 22.9853 118.091 23.6693C118.847 24.3413 119.225 25.3613 119.225 26.7293V32.3633H117.101V31.1933C116.825 31.6133 116.429 31.9373 115.913 32.1653C115.409 32.3813 114.797 32.4893 114.077 32.4893C113.357 32.4893 112.727 32.3693 112.187 32.1293C111.647 31.8773 111.227 31.5353 110.927 31.1033C110.639 30.6593 110.495 30.1613 110.495 29.6093C110.495 28.7453 110.813 28.0553 111.449 27.5393C112.097 27.0113 113.111 26.7473 114.491 26.7473H116.975V26.6033C116.975 25.9313 116.771 25.4153 116.363 25.0553C115.967 24.6953 115.373 24.5153 114.581 24.5153C114.041 24.5153 113.507 24.5993 112.979 24.7673C112.463 24.9353 112.025 25.1693 111.665 25.4693L110.783 23.8313C111.287 23.4473 111.893 23.1533 112.601 22.9493C113.309 22.7453 114.059 22.6433 114.851 22.6433ZM114.545 30.8513C115.109 30.8513 115.607 30.7253 116.039 30.4733C116.483 30.2093 116.795 29.8373 116.975 29.3573V28.2413H114.653C113.357 28.2413 112.709 28.6673 112.709 29.5193C112.709 29.9273 112.871 30.2513 113.195 30.4913C113.519 30.7313 113.969 30.8513 114.545 30.8513ZM131.741 22.7513V30.9053C131.741 34.2893 130.013 35.9813 126.557 35.9813C125.633 35.9813 124.757 35.8613 123.929 35.6213C123.101 35.3933 122.417 35.0573 121.877 34.6133L122.885 32.9213C123.305 33.2693 123.833 33.5453 124.469 33.7493C125.117 33.9653 125.771 34.0733 126.431 34.0733C127.487 34.0733 128.261 33.8333 128.753 33.3533C129.245 32.8733 129.491 32.1413 129.491 31.1573V30.6533C129.107 31.0733 128.639 31.3913 128.087 31.6073C127.535 31.8233 126.929 31.9313 126.269 31.9313C125.357 31.9313 124.529 31.7393 123.785 31.3553C123.053 30.9593 122.471 30.4073 122.039 29.6993C121.619 28.9913 121.409 28.1813 121.409 27.2693C121.409 26.3573 121.619 25.5533 122.039 24.8573C122.471 24.1493 123.053 23.6033 123.785 23.2193C124.529 22.8353 125.357 22.6433 126.269 22.6433C126.965 22.6433 127.595 22.7573 128.159 22.9853C128.735 23.2133 129.215 23.5613 129.599 24.0293V22.7513H131.741ZM126.611 30.0233C127.463 30.0233 128.159 29.7713 128.699 29.2673C129.251 28.7513 129.527 28.0853 129.527 27.2693C129.527 26.4653 129.251 25.8113 128.699 25.3073C128.159 24.8033 127.463 24.5513 126.611 24.5513C125.747 24.5513 125.039 24.8033 124.487 25.3073C123.947 25.8113 123.677 26.4653 123.677 27.2693C123.677 28.0853 123.947 28.7513 124.487 29.2673C125.039 29.7713 125.747 30.0233 126.611 30.0233Z" fill="white"/>
    <defs>
        <filter id="filter0_d" x="0.292969" y="0.726562" width="175.153" height="55.2734" filterUnits="userSpaceOnUse" color-interpolation-filters="sRGB">
            <feFlood flood-opacity="0" result="BackgroundImageFix"/>
            <feColorMatrix in="SourceAlpha" type="matrix" values="0 0 0 0 0 0 0 0 0 0 0 0 0 0 0 0 0 0 127 0"/>
            <feOffset dy="2"/>
            <feGaussianBlur stdDeviation="1"/>
            <feColorMatrix type="matrix" values="0 0 0 0 0 0 0 0 0 0 0 0 0 0 0 0 0 0 0.04 0"/>
            <feBlend mode="normal" in2="BackgroundImageFix" result="effect1_dropShadow"/>
            <feBlend mode="normal" in="SourceGraphic" in2="effect1_dropShadow" result="shape"/>
        </filter>
    </defs>
</svg>