<svg width="59" height="56" viewBox="0 0 59 56" fill="none" xmlns="http://www.w3.org/2000/svg">
    <g filter="url(#filter0_d)">
        <rect x="2.65625" y="0.726562" width="53.4978" height="51.2734" rx="5" fill="#FCFBFB"/>
    </g>
    <path d="M40.4062 33.3633C40.4062 33.8937 40.1955 34.4024 39.8205 34.7775C39.4454 35.1526 38.9367 35.3633 38.4062 35.3633H20.4062C19.8758 35.3633 19.3671 35.1526 18.992 34.7775C18.617 34.4024 18.4062 33.8937 18.4062 33.3633V22.3633C18.4062 21.8328 18.617 21.3241 18.992 20.9491C19.3671 20.574 19.8758 20.3633 20.4062 20.3633H24.4062L26.4062 17.3633H32.4062L34.4062 20.3633H38.4062C38.9367 20.3633 39.4454 20.574 39.8205 20.9491C40.1955 21.3241 40.4062 21.8328 40.4062 22.3633V33.3633Z" stroke="#737070" stroke-width="2" stroke-linecap="round" stroke-linejoin="round"/>
    <path d="M29.4062 31.3633C31.6154 31.3633 33.4062 29.5724 33.4062 27.3633C33.4062 25.1541 31.6154 23.3633 29.4062 23.3633C27.1971 23.3633 25.4062 25.1541 25.4062 27.3633C25.4062 29.5724 27.1971 31.3633 29.4062 31.3633Z" stroke="#737070" stroke-width="2" stroke-linecap="round" stroke-linejoin="round"/>
    <defs>
        <filter id="filter0_d" x="0.65625" y="0.726562" width="57.4978" height="55.2734" filterUnits="userSpaceOnUse" color-interpolation-filters="sRGB">
            <feFlood flood-opacity="0" result="BackgroundImageFix"/>
            <feColorMatrix in="SourceAlpha" type="matrix" values="0 0 0 0 0 0 0 0 0 0 0 0 0 0 0 0 0 0 127 0"/>
            <feOffset dy="2"/>
            <feGaussianBlur stdDeviation="1"/>
            <feColorMatrix type="matrix" values="0 0 0 0 0 0 0 0 0 0 0 0 0 0 0 0 0 0 0.04 0"/>
            <feBlend mode="normal" in2="BackgroundImageFix" result="effect1_dropShadow"/>
            <feBlend mode="normal" in="SourceGraphic" in2="effect1_dropShadow" result="shape"/>
        </filter>
    </defs>
</svg>