<svg width="59" height="56" viewBox="0 0 59 56" fill="none" xmlns="http://www.w3.org/2000/svg">
    <g filter="url(#filter0_d)">
        <rect x="2.66406" y="0.726562" width="53.4978" height="51.2734" rx="5" fill="#FCFBFB"/>
    </g>
    <path d="M26.0361 31.4433V33.8633H14.6841V31.9493L20.8001 26.1413C21.4894 25.4813 21.9514 24.9093 22.1861 24.4253C22.4354 23.9266 22.5601 23.4353 22.5601 22.9513C22.5601 22.2326 22.3181 21.6826 21.8341 21.3013C21.3501 20.9199 20.6387 20.7293 19.7001 20.7293C18.1307 20.7293 16.9281 21.2646 16.0921 22.3353L14.0901 20.7953C14.6914 19.9886 15.4981 19.3653 16.5101 18.9253C17.5367 18.4706 18.6807 18.2433 19.9421 18.2433C21.6141 18.2433 22.9487 18.6393 23.9461 19.4313C24.9434 20.2233 25.4421 21.3013 25.4421 22.6653C25.4421 23.5013 25.2661 24.2859 24.9141 25.0193C24.5621 25.7526 23.8874 26.5886 22.8901 27.5273L18.7761 31.4433H26.0361ZM28.7868 18.4633H35.5188C37.1614 18.4633 38.6208 18.7859 39.8968 19.4313C41.1728 20.0619 42.1628 20.9639 42.8668 22.1373C43.5708 23.2959 43.9228 24.6379 43.9228 26.1633C43.9228 27.6886 43.5708 29.0379 42.8668 30.2113C42.1628 31.3699 41.1728 32.2719 39.8968 32.9173C38.6208 33.5479 37.1614 33.8633 35.5188 33.8633H28.7868V18.4633ZM35.3868 31.4433C36.5161 31.4433 37.5061 31.2306 38.3568 30.8053C39.2221 30.3653 39.8821 29.7493 40.3368 28.9573C40.8061 28.1506 41.0408 27.2193 41.0408 26.1633C41.0408 25.1073 40.8061 24.1833 40.3368 23.3913C39.8821 22.5846 39.2221 21.9686 38.3568 21.5433C37.5061 21.1033 36.5161 20.8833 35.3868 20.8833H31.6468V31.4433H35.3868Z" fill="#737070"/>
    <defs>
        <filter id="filter0_d" x="0.664062" y="0.726562" width="57.4978" height="55.2734" filterUnits="userSpaceOnUse" color-interpolation-filters="sRGB">
            <feFlood flood-opacity="0" result="BackgroundImageFix"/>
            <feColorMatrix in="SourceAlpha" type="matrix" values="0 0 0 0 0 0 0 0 0 0 0 0 0 0 0 0 0 0 127 0"/>
            <feOffset dy="2"/>
            <feGaussianBlur stdDeviation="1"/>
            <feColorMatrix type="matrix" values="0 0 0 0 0 0 0 0 0 0 0 0 0 0 0 0 0 0 0.04 0"/>
            <feBlend mode="normal" in2="BackgroundImageFix" result="effect1_dropShadow"/>
            <feBlend mode="normal" in="SourceGraphic" in2="effect1_dropShadow" result="shape"/>
        </filter>
    </defs>
</svg>
