<svg width="63" height="63" viewBox="0 0 63 63" fill="none" xmlns="http://www.w3.org/2000/svg">
<mask id="mask0" mask-type="alpha" maskUnits="userSpaceOnUse" x="0" y="0" width="63" height="63">
<circle cx="31.3467" cy="31.8633" r="31" fill="white"/>
</mask>
<g mask="url(#mask0)">
<path d="M65.3457 -1.13672H-0.586914V70.9228H65.3457V-1.13672Z" fill="#DBDBDB"/>
<path d="M43.8901 63.6025C35.9475 60.5279 27.9205 60.6375 19.9146 63.6025V55.3997C27.9733 53.1501 35.9581 53.2943 43.8901 55.3997V63.6025Z" fill="url(#paint0_linear)"/>
<path d="M40.5197 48.4165C39.9177 48.4107 41.0003 56.7289 41.5548 58.7247C42.2941 61.384 46.9097 63.4491 51.652 65.0181C53.8277 65.7392 57.8518 68.9118 58.4063 70.1405C58.7232 70.8443 58.7073 70.925 58.7073 70.925H6.05103L9.36746 67.4466C10.392 66.3737 11.6488 65.6065 13.0219 65.22L14.6378 64.7643L16.6129 63.7491C16.9931 63.5529 17.3522 63.3164 17.6849 63.0395L21.7407 59.6823C21.7407 59.6823 23.0134 57.946 22.9078 55.3214C22.8022 52.6967 22.8022 48.428 22.8022 48.428H40.5197V48.4165Z" fill="url(#paint1_linear)"/>
<path d="M31.3574 62.6055L27.9934 66.28C27.9934 66.28 28.6641 69.3257 30.1692 69.02C30.3118 68.9911 30.1586 69.1642 30.8399 69.4988C31.5634 69.8506 32.477 69.4872 33.1635 69.3834C34.0349 69.2507 34.8006 68.6854 35.2442 67.8548L36.0681 66.3204L32.8678 62.7554L31.3574 62.6055Z" fill="#A8A8A8"/>
<path d="M18.3323 62.5656C18.3323 62.5656 23.872 67.538 27.7588 68.0398C28.0704 68.0802 28.8783 68.109 29.0104 67.8956L32.0575 62.7444L20.7034 58.6719L18.3323 62.5656Z" fill="url(#paint2_radial)"/>
<path d="M45.8375 62.6398C45.8375 62.6398 40.2978 67.6122 36.411 68.1141C36.0994 68.1545 35.2914 68.1833 35.1594 67.9699L32.1123 62.8186L43.4663 58.7461L45.8375 62.6398Z" fill="url(#paint3_radial)"/>
<path d="M19.5088 40.7718C19.5088 40.7718 21.1882 49.7648 25.4129 52.5568C32.0088 56.9177 36.5399 53.2201 36.5399 53.2201C36.5399 53.2201 41.805 48.0689 42.6657 45.0347C43.4368 42.3235 43.7061 40.7718 43.7061 40.7718C43.7061 40.7718 44.4032 40.7718 44.8626 40.1431C45.3273 39.5143 45.4435 35.5052 45.7868 34.3746C46.1353 33.244 46.3677 31.3635 45.2059 31.4904C44.0494 31.6173 43.4684 33.7458 43.4684 33.7458C43.4684 33.7458 45.6548 25.5489 44.9577 23.2876C44.2606 21.0322 43.5793 20.7034 40.8016 18.8229C38.0238 16.9423 36.6402 15.4541 34.9345 16.0771C33.2287 16.7058 25.2651 17.0981 23.0682 16.2213C20.866 15.3445 18.8012 22.6993 18.4526 24.5798C18.1041 26.4603 19.3821 32.2345 19.4983 33.7401C19.6144 35.2456 19.6144 35.2456 19.6144 35.2456C19.6144 35.2456 18.8065 31.2366 18.1094 30.9827C17.4123 30.7347 16.1396 30.7347 16.3719 33.7401C16.6043 36.7512 16.8842 34.4207 17.877 40.0104C18.4685 43.2811 19.5088 40.7718 19.5088 40.7718Z" fill="#EAEAEA"/>
<path d="M19.9026 55.4658C19.9026 55.4658 18.8939 61.9496 18.2444 62.1284C17.6001 62.313 25.4159 66.5124 28.2941 66.9162C28.2941 66.9162 30.0209 63.6513 31.9591 62.6649C31.9538 62.6706 20.2987 58.35 19.9026 55.4658Z" fill="#F9F7F7"/>
<path d="M43.9094 55.4014C43.9094 55.4014 44.9709 61.8736 45.6099 62.0466C46.2489 62.2197 38.5598 66.5172 35.7187 66.9556C35.7187 66.9556 33.9813 63.7137 32.0537 62.7504C32.059 62.7504 43.545 58.2971 43.9094 55.4014Z" fill="#F9F7F7"/>
<path d="M19.5891 33.2963C19.5891 33.2963 18.6279 29.991 18.8392 28.3354C19.0557 26.6799 17.9837 19.9539 21.6222 18.7713C25.2608 17.5888 28.2551 18.8867 29.2215 18.656C30.1826 18.4195 33.9532 16.5043 35.321 16.8851C36.8683 17.3119 42.1704 21.9613 43.4537 21.9613C43.4537 21.9613 43.9976 25.4454 44.3197 26.0338C44.6419 26.6222 43.987 31.41 43.987 32.1138C43.987 32.8233 43.987 33.1752 44.2036 33.8847C44.2036 33.8847 44.5257 32.5868 44.6313 31.7619C44.7369 30.937 46.0202 28.8085 46.0202 28.8085C46.0202 28.8085 47.0922 21.7248 46.8757 21.2518C46.6592 20.7788 47.9477 20.1904 46.0202 16.2909C44.0927 12.3972 35.5322 6.72682 32.0046 6.25381C28.4716 5.78079 23.5498 6.25381 21.5166 12.3914C21.5166 12.3914 16.167 13.6893 15.4171 19.827C14.6672 25.9646 18.8392 30.3371 18.8392 32.2234C18.8392 34.1097 19.3725 35.1768 19.3725 35.1768L19.5891 33.2963Z" fill="#A8A8A8"/>
<path d="M44.1321 34.3351C44.2272 34.6236 43.2449 34.1621 43.2449 34.1621C43.2449 34.1621 42.0461 38.0212 41.4018 38.2173C40.7576 38.4077 34.4521 38.4596 34.0243 37.8654C33.7075 37.4328 33.248 35.8176 33.021 34.987C32.0704 34.3582 31.2096 34.7101 30.6023 35.1946C30.3646 36.0657 29.9474 37.4616 29.657 37.8654C29.2239 38.4596 22.9185 38.4134 22.2795 38.2173C21.6352 38.027 20.4364 34.1621 20.4364 34.1621C20.4364 34.1621 19.4489 34.6236 19.5439 34.3351C19.7024 33.8564 19.3116 32.9507 19 32.3739C19.5334 32.8988 20.2833 32.795 20.2833 32.795C20.2833 32.795 20.5843 32.1604 21.5718 32.1258C24.1014 32.0393 28.6061 31.6586 31.1568 32.8584C31.97 32.9853 32.1073 32.9449 32.5298 32.8584C35.0805 31.6586 39.5852 32.0393 42.1148 32.1258C43.097 32.1604 43.4033 32.795 43.4033 32.795C43.4033 32.795 44.1585 32.8988 44.6866 32.3739C44.3645 32.9507 43.9684 33.8564 44.1321 34.3351Z" fill="#A8A8A8"/>
<path d="M29.2254 32.1584C29.2254 32.1584 26.1255 31.2239 21.7107 32.0142C19.63 32.3891 22.1067 36.6982 22.1701 36.7674C22.2335 36.8366 25.7981 37.4134 28.8293 36.6982C29.7852 36.4674 30.1496 32.0834 29.2254 32.1584Z" fill="#EAEAEA"/>
<path d="M33.9368 32.1584C33.9368 32.1584 37.0367 31.2239 41.4516 32.0142C43.5323 32.3891 41.0555 36.6982 40.9922 36.7674C40.9288 36.8366 37.3641 37.4134 34.3329 36.6982C33.3717 36.4674 33.0126 32.0834 33.9368 32.1584Z" fill="#EAEAEA"/>
<path d="M44.2967 31.1208C44.2122 31.2939 44.1119 31.4323 44.001 31.5419C44.228 31.1093 44.4182 30.867 44.2967 31.1208Z" fill="#A8A8A8"/>
<path d="M18.3131 31.5419C18.2022 31.4323 18.1019 31.2939 18.0174 31.1208C17.9013 30.867 18.0861 31.1093 18.3131 31.5419Z" fill="#A8A8A8"/>
</g>
<defs>
<linearGradient id="paint0_linear" x1="19.9154" y1="58.6866" x2="43.8913" y2="58.6866" gradientUnits="userSpaceOnUse">
<stop stop-color="#A1A1A1"/>
<stop offset="0.0577997" stop-color="#B2B2B2"/>
<stop offset="0.1872" stop-color="#D4D4D4"/>
<stop offset="0.3108" stop-color="#ECECEC"/>
<stop offset="0.4253" stop-color="#FAFAFA"/>
<stop offset="0.5215" stop-color="white"/>
<stop offset="0.6449" stop-color="#FCFCFB"/>
<stop offset="0.7549" stop-color="#F1F1F1"/>
<stop offset="0.8598" stop-color="#DFDFDE"/>
<stop offset="0.9609" stop-color="#C6C6C5"/>
<stop offset="1" stop-color="#BABAB9"/>
</linearGradient>
<linearGradient id="paint1_linear" x1="32.3772" y1="72.5032" x2="32.3772" y2="45.3241" gradientUnits="userSpaceOnUse">
<stop offset="0.00497512" stop-color="#F2F2F2"/>
<stop offset="0.315" stop-color="#EFEFEF"/>
<stop offset="0.5527" stop-color="#E5E5E5"/>
<stop offset="0.7663" stop-color="#D5D5D5"/>
<stop offset="0.9648" stop-color="#BFBFBE"/>
<stop offset="1" stop-color="#BABAB9"/>
</linearGradient>
<radialGradient id="paint2_radial" cx="0" cy="0" r="1" gradientUnits="userSpaceOnUse" gradientTransform="translate(26.5581 62.7511) scale(6.31138 6.89822)">
<stop stop-color="#8A8A8A"/>
<stop offset="0.0928131" stop-color="#A0A0A0"/>
<stop offset="0.2404" stop-color="#BEBEBE"/>
<stop offset="0.3971" stop-color="#D5D5D5"/>
<stop offset="0.5649" stop-color="#E5E5E5"/>
<stop offset="0.7517" stop-color="#EFEFEF"/>
<stop offset="0.995" stop-color="#F2F2F2"/>
</radialGradient>
<radialGradient id="paint3_radial" cx="0" cy="0" r="1" gradientUnits="userSpaceOnUse" gradientTransform="translate(36.7946 62.2794) scale(6.5752 7.1866)">
<stop stop-color="#8A8A8A"/>
<stop offset="0.0928131" stop-color="#A0A0A0"/>
<stop offset="0.2404" stop-color="#BEBEBE"/>
<stop offset="0.3971" stop-color="#D5D5D5"/>
<stop offset="0.5649" stop-color="#E5E5E5"/>
<stop offset="0.7517" stop-color="#EFEFEF"/>
<stop offset="0.995" stop-color="#F2F2F2"/>
</radialGradient>
</defs>
</svg>
