<svg width="92" height="94" viewBox="0 0 92 94" fill="none" xmlns="http://www.w3.org/2000/svg">
<mask id="mask0" mask-type="alpha" maskUnits="userSpaceOnUse" x="0" y="0" width="92" height="94">
<ellipse cx="45.9531" cy="47" rx="45.9531" ry="47" fill="white"/>
</mask>
<g mask="url(#mask0)">
<path d="M96.3521 -3.03223H-1.38379V106.219H96.3521V-3.03223Z" fill="#DBDBDB"/>
<path d="M64.5472 95.1202C52.7735 90.4588 40.8745 90.6249 29.0068 95.1202V82.6838C40.9528 79.273 52.7891 79.4917 64.5472 82.6838V95.1202Z" fill="url(#paint0_linear)"/>
<path d="M59.5506 72.0967C58.6582 72.0879 60.2629 84.6993 61.0849 87.7253C62.1809 91.7571 69.0228 94.888 76.0525 97.2669C79.2778 98.3601 85.2429 103.17 86.0649 105.033C86.5346 106.1 86.5111 106.222 86.5111 106.222H8.45557L13.3717 100.949C14.8904 99.3221 16.7535 98.1589 18.7889 97.573L21.1843 96.8821L24.1121 95.3428C24.6757 95.0455 25.208 94.6869 25.7012 94.2671L31.7133 89.1771C31.7133 89.1771 33.5999 86.5446 33.4434 82.5653C33.2868 78.586 33.2868 72.1142 33.2868 72.1142H59.5506V72.0967Z" fill="url(#paint1_linear)"/>
<path d="M45.9686 93.6084L40.9819 99.1794C40.9819 99.1794 41.9761 103.797 44.2072 103.334C44.4186 103.29 44.1916 103.552 45.2014 104.06C46.2739 104.593 47.6282 104.042 48.6459 103.885C49.9376 103.683 51.0727 102.826 51.7302 101.567L52.9515 99.2406L48.2075 93.8358L45.9686 93.6084Z" fill="#A8A8A8"/>
<path d="M26.6606 93.5489C26.6606 93.5489 34.8725 101.088 40.6341 101.849C41.096 101.91 42.2937 101.953 42.4894 101.63L47.0063 93.82L30.1755 87.6455L26.6606 93.5489Z" fill="url(#paint2_radial)"/>
<path d="M67.4331 93.6622C67.4331 93.6622 59.2212 101.201 53.4596 101.962C52.9977 102.023 51.8 102.067 51.6043 101.743L47.0874 93.9333L63.9182 87.7588L67.4331 93.6622Z" fill="url(#paint3_radial)"/>
<path d="M28.4048 60.5063C28.4048 60.5063 30.8942 74.1409 37.1568 78.3738C46.9343 84.9856 53.6509 79.3796 53.6509 79.3796C53.6509 79.3796 61.4557 71.5697 62.7317 66.9694C63.8746 62.8589 64.2738 60.5063 64.2738 60.5063C64.2738 60.5063 65.3072 60.5063 65.9882 59.5531C66.6771 58.5998 66.8493 52.5215 67.3582 50.8073C67.8748 49.0932 68.2193 46.2421 66.4971 46.4345C64.7827 46.6269 63.9216 49.8541 63.9216 49.8541C63.9216 49.8541 67.1625 37.4264 66.1291 33.9981C65.0958 30.5785 64.0859 30.08 59.9683 27.2289C55.8506 24.3778 53.7996 22.1214 51.2711 23.0659C48.7426 24.0192 36.9376 24.6139 33.681 23.2846C30.4167 21.9552 27.3558 33.106 26.8391 35.9571C26.3225 38.8082 28.2169 47.5627 28.3891 49.8453C28.5614 52.1279 28.5613 52.1279 28.5613 52.1279C28.5613 52.1279 27.3636 46.0497 26.3303 45.6649C25.297 45.2888 23.4104 45.2888 23.7548 49.8453C24.0993 54.4106 24.5141 50.8773 25.9859 59.3519C26.8626 64.3107 28.4048 60.5063 28.4048 60.5063Z" fill="#EAEAEA"/>
<path d="M28.9884 82.7852C28.9884 82.7852 27.4932 92.6153 26.5303 92.8865C25.5753 93.1663 37.1612 99.5332 41.4276 100.145C41.4276 100.145 43.9874 95.1953 46.8604 93.6998C46.8526 93.7086 29.5755 87.158 28.9884 82.7852Z" fill="#F9F7F7"/>
<path d="M64.5749 82.6875C64.5749 82.6875 66.1484 92.5002 67.0956 92.7626C68.0428 93.0249 56.6449 99.5405 52.4333 100.205C52.4333 100.205 49.8578 95.2901 47.0005 93.8295C47.0083 93.8295 64.0348 87.0778 64.5749 82.6875Z" fill="#F9F7F7"/>
<path d="M28.5236 49.1731C28.5236 49.1731 27.0989 44.1618 27.412 41.6518C27.733 39.1418 26.1438 28.9443 31.5375 27.1514C36.9312 25.3585 41.3698 27.3263 42.8024 26.9765C44.2271 26.6179 49.8165 23.7143 51.844 24.2915C54.1377 24.9387 61.9973 31.9878 63.8995 31.9878C63.8995 31.9878 64.7058 37.2702 65.1833 38.1623C65.6609 39.0543 64.6902 46.3133 64.6902 47.3802C64.6902 48.456 64.6902 48.9894 65.0111 50.0652C65.0111 50.0652 65.4886 48.0974 65.6452 46.8467C65.8018 45.5961 67.704 42.3689 67.704 42.3689C67.704 42.3689 69.2932 31.6292 68.9722 30.9121C68.6513 30.1949 70.5614 29.3028 67.704 23.3907C64.8467 17.4874 52.1571 8.89034 46.9279 8.17319C41.6907 7.45604 34.3948 8.17319 31.3809 17.4786C31.3809 17.4786 23.4509 19.4464 22.3393 28.7519C21.2277 38.0573 27.412 44.6866 27.412 47.5464C27.412 50.4063 28.2027 52.0242 28.2027 52.0242L28.5236 49.1731Z" fill="#A8A8A8"/>
<path d="M64.497 49.4857C64.6379 49.923 63.1818 49.2233 63.1818 49.2233C63.1818 49.2233 61.4048 55.0742 60.4498 55.3716C59.4947 55.6602 50.1477 55.7389 49.5137 54.8381C49.044 54.1821 48.3629 51.7333 48.0263 50.474C46.6172 49.5207 45.3412 50.0542 44.4409 50.7888C44.0886 52.1094 43.4702 54.2259 43.0397 54.8381C42.3977 55.7389 33.0508 55.6689 32.1036 55.3716C31.1485 55.0829 29.3715 49.2233 29.3715 49.2233C29.3715 49.2233 27.9076 49.923 28.0485 49.4857C28.2834 48.7598 27.7041 47.3867 27.2422 46.5121C28.0328 47.308 29.1445 47.1506 29.1445 47.1506C29.1445 47.1506 29.5907 46.1886 31.0546 46.1361C34.8043 46.0049 41.4818 45.4277 45.2629 47.2468C46.4684 47.4392 46.672 47.378 47.2982 47.2468C51.0793 45.4277 57.7568 46.0049 61.5066 46.1361C62.9626 46.1886 63.4167 47.1506 63.4167 47.1506C63.4167 47.1506 64.5361 47.308 65.319 46.5121C64.8414 47.3867 64.2543 48.7598 64.497 49.4857Z" fill="#A8A8A8"/>
<path d="M42.8082 47.4469C42.8082 47.4469 38.213 46.0301 31.6686 47.2283C28.5843 47.7967 32.2558 54.3298 32.3497 54.4348C32.4436 54.5397 37.7277 55.4143 42.2211 54.3298C43.638 53.98 44.1781 47.3332 42.8082 47.4469Z" fill="#EAEAEA"/>
<path d="M49.7921 47.4469C49.7921 47.4469 54.3873 46.0301 60.9317 47.2283C64.0161 47.7967 60.3446 54.3298 60.2507 54.4348C60.1567 54.5397 54.8727 55.4143 50.3792 54.3298C48.9545 53.98 48.4222 47.3332 49.7921 47.4469Z" fill="#EAEAEA"/>
<path d="M65.1498 45.8743C65.0246 46.1367 64.8758 46.3466 64.7114 46.5127C65.048 45.8568 65.3298 45.4895 65.1498 45.8743Z" fill="#A8A8A8"/>
<path d="M26.6324 46.5127C26.468 46.3466 26.3193 46.1367 26.1941 45.8743C26.022 45.4895 26.2959 45.8568 26.6324 46.5127Z" fill="#A8A8A8"/>
</g>
<defs>
<linearGradient id="paint0_linear" x1="29.0081" y1="87.6671" x2="64.549" y2="87.6671" gradientUnits="userSpaceOnUse">
<stop stop-color="#A1A1A1"/>
<stop offset="0.0577997" stop-color="#B2B2B2"/>
<stop offset="0.1872" stop-color="#D4D4D4"/>
<stop offset="0.3108" stop-color="#ECECEC"/>
<stop offset="0.4253" stop-color="#FAFAFA"/>
<stop offset="0.5215" stop-color="white"/>
<stop offset="0.6449" stop-color="#FCFCFB"/>
<stop offset="0.7549" stop-color="#F1F1F1"/>
<stop offset="0.8598" stop-color="#DFDFDE"/>
<stop offset="0.9609" stop-color="#C6C6C5"/>
<stop offset="1" stop-color="#BABAB9"/>
</linearGradient>
<linearGradient id="paint1_linear" x1="47.4804" y1="108.615" x2="47.4804" y2="67.4081" gradientUnits="userSpaceOnUse">
<stop offset="0.00497512" stop-color="#F2F2F2"/>
<stop offset="0.315" stop-color="#EFEFEF"/>
<stop offset="0.5527" stop-color="#E5E5E5"/>
<stop offset="0.7663" stop-color="#D5D5D5"/>
<stop offset="0.9648" stop-color="#BFBFBE"/>
<stop offset="1" stop-color="#BABAB9"/>
</linearGradient>
<radialGradient id="paint2_radial" cx="0" cy="0" r="1" gradientUnits="userSpaceOnUse" gradientTransform="translate(38.8543 93.8302) scale(9.35574 10.4586)">
<stop stop-color="#8A8A8A"/>
<stop offset="0.0928131" stop-color="#A0A0A0"/>
<stop offset="0.2404" stop-color="#BEBEBE"/>
<stop offset="0.3971" stop-color="#D5D5D5"/>
<stop offset="0.5649" stop-color="#E5E5E5"/>
<stop offset="0.7517" stop-color="#EFEFEF"/>
<stop offset="0.995" stop-color="#F2F2F2"/>
</radialGradient>
<radialGradient id="paint3_radial" cx="0" cy="0" r="1" gradientUnits="userSpaceOnUse" gradientTransform="translate(54.0283 93.1157) scale(9.74681 10.8958)">
<stop stop-color="#8A8A8A"/>
<stop offset="0.0928131" stop-color="#A0A0A0"/>
<stop offset="0.2404" stop-color="#BEBEBE"/>
<stop offset="0.3971" stop-color="#D5D5D5"/>
<stop offset="0.5649" stop-color="#E5E5E5"/>
<stop offset="0.7517" stop-color="#EFEFEF"/>
<stop offset="0.995" stop-color="#F2F2F2"/>
</radialGradient>
</defs>
</svg>
