<svg width="25" height="21" viewBox="0 0 25 21" fill="none" xmlns="http://www.w3.org/2000/svg">
    <path d="M23.4062 17.832C23.4062 18.3625 23.1955 18.8712 22.8205 19.2462C22.4454 19.6213 21.9367 19.832 21.4062 19.832H3.40625C2.87582 19.832 2.36711 19.6213 1.99204 19.2462C1.61696 18.8712 1.40625 18.3625 1.40625 17.832V6.83203C1.40625 6.3016 1.61696 5.79289 1.99204 5.41782C2.36711 5.04274 2.87582 4.83203 3.40625 4.83203H7.40625L9.40625 1.83203H15.4062L17.4062 4.83203H21.4062C21.9367 4.83203 22.4454 5.04274 22.8205 5.41782C23.1955 5.79289 23.4062 6.3016 23.4062 6.83203V17.832Z" stroke="#FCFBFB" stroke-width="2" stroke-linecap="round" stroke-linejoin="round"/>
    <path d="M12.4062 15.832C14.6154 15.832 16.4062 14.0412 16.4062 11.832C16.4062 9.62289 14.6154 7.83203 12.4062 7.83203C10.1971 7.83203 8.40625 9.62289 8.40625 11.832C8.40625 14.0412 10.1971 15.832 12.4062 15.832Z" stroke="#FCFBFB" stroke-width="2" stroke-linecap="round" stroke-linejoin="round"/>
</svg>